<svg width="92" height="86" viewBox="0 0 92 86" fill="none" xmlns="http://www.w3.org/2000/svg">
<rect y="0.534912" width="92" height="85" rx="21" fill="#136DC7" fill-opacity="0.24"/>
<path d="M39.4375 50.5349C38.8573 50.5349 38.3009 50.3044 37.8907 49.8942C37.4805 49.484 37.25 48.9276 37.25 48.3474V45.2224C37.25 44.9738 37.3488 44.7353 37.5246 44.5595C37.7004 44.3837 37.9389 44.2849 38.1875 44.2849C38.4361 44.2849 38.6746 44.3837 38.8504 44.5595C39.0262 44.7353 39.125 44.9738 39.125 45.2224V48.3474C39.125 48.5199 39.265 48.6599 39.4375 48.6599H52.5625C52.6454 48.6599 52.7249 48.627 52.7835 48.5684C52.8421 48.5098 52.875 48.4303 52.875 48.3474V45.2224C52.875 44.9738 52.9738 44.7353 53.1496 44.5595C53.3254 44.3837 53.5639 44.2849 53.8125 44.2849C54.0611 44.2849 54.2996 44.3837 54.4754 44.5595C54.6512 44.7353 54.75 44.9738 54.75 45.2224V48.3474C54.75 48.9276 54.5195 49.484 54.1093 49.8942C53.6991 50.3044 53.1427 50.5349 52.5625 50.5349H39.4375Z" fill="#136DC7"/>
<path d="M50.725 38.9348C50.812 39.0218 50.881 39.1251 50.9281 39.2388C50.9752 39.3525 50.9994 39.4743 50.9994 39.5973C50.9994 39.7204 50.9752 39.8422 50.9281 39.9559C50.881 40.0696 50.812 40.1728 50.725 40.2598C50.638 40.3469 50.5347 40.4159 50.4211 40.4629C50.3074 40.51 50.1856 40.5343 50.0625 40.5343C49.9395 40.5343 49.8177 40.51 49.704 40.4629C49.5903 40.4159 49.487 40.3469 49.4 40.2598L46.9375 37.7986V44.9098C46.9375 45.1585 46.8388 45.3969 46.6629 45.5728C46.4871 45.7486 46.2487 45.8473 46 45.8473C45.7514 45.8473 45.5129 45.7486 45.3371 45.5728C45.1613 45.3969 45.0625 45.1585 45.0625 44.9098V37.7986L42.6 40.2598C42.513 40.3469 42.4097 40.4159 42.2961 40.4629C42.1824 40.51 42.0606 40.5343 41.9375 40.5343C41.8145 40.5343 41.6927 40.51 41.579 40.4629C41.4653 40.4159 41.362 40.3469 41.275 40.2598C41.188 40.1728 41.119 40.0696 41.0719 39.9559C41.0248 39.8422 41.0006 39.7204 41.0006 39.5973C41.0006 39.4743 41.0248 39.3525 41.0719 39.2388C41.119 39.1251 41.188 39.0218 41.275 38.9348L45.3375 34.8723C45.4245 34.7853 45.5278 34.7162 45.6414 34.6691C45.7551 34.6219 45.877 34.5977 46 34.5977C46.1231 34.5977 46.2449 34.6219 46.3586 34.6691C46.4723 34.7162 46.5756 34.7853 46.6625 34.8723L50.725 38.9348Z" fill="#136DC7"/>
</svg>
